# xmcd
#
# Track frame offsets:
#	150
#	11305
#	23900
#	40507
#	54697
#	68280
#	79782
#	93750
#	105875
#	120705
#
# Disc length: 1813 seconds
#
# Revision: 1
# Processed by: cddbd v1.5.2PL0 Copyright (c) Steve Scherf et al.
# Submitted via: audiograbber 1.83.01
#
DISCID=6207130a
DTITLE=Various Artist - Hot Country Hits of the 90's
DYEAR=1998
DGENRE=Country
TTITLE0=Patty Loveless - Chains
TTITLE1=Aaron Tippin - There Ain't Nothin' Wrong With The Radio
TTITLE2=Ronnie Milsap - Turn That Radio On
TTITLE3=Shenandoah - Rock My Baby
TTITLE4=John Anderson - Money In The Bank
TTITLE5=Larry Stewart - Alright Already
TTITLE6=Lorrie Morgan - We Both Walk
TTITLE7=Restless Heart - You Can Depend On Me
TTITLE8=Earl Thomas Conley - Brotherly Love
TTITLE9=Paul Overstreet - Seein' My Father In Me
EXTD=
EXTT0=
EXTT1=
EXTT2=
EXTT3=
EXTT4=
EXTT5=
EXTT6=
EXTT7=
EXTT8=
EXTT9=
PLAYORDER=
